<?xml version="1.0" encoding="utf-8"?>
<svg version="1.1" width="123px" height="90px" style="shape-rendering:geometricPrecision; text-rendering:geometricPrecision; image-rendering:optimizeQuality; fill-rule:evenodd; clip-rule:evenodd" xmlns="http://www.w3.org/2000/svg">
  <g>
    <path style="opacity:1" fill="#62605c" d="M 96.5,-0.5 C 99.5,-0.5 102.5,-0.5 105.5,-0.5C 109.42,0.462464 112.753,2.46246 115.5,5.5C 114.153,4.97169 112.819,4.80503 111.5,5C 112.464,6.72546 113.131,8.55879 113.5,10.5C 109.402,6.12361 104.402,4.62361 98.5,6C 97.944,6.38258 97.6107,6.88258 97.5,7.5C 97.1667,7.5 96.8333,7.5 96.5,7.5C 96.5,7.16667 96.5,6.83333 96.5,6.5C 96.2965,4.60963 96.9632,3.10963 98.5,2C 95.8428,1.82527 93.1761,1.99194 90.5,2.5C 92.3713,1.20278 94.3713,0.202776 96.5,-0.5 Z"/>
  </g>
  <g>
    <path style="opacity:1" fill="#747376" d="M 90.5,2.5 C 89.1073,5.01707 87.1073,6.68374 84.5,7.5C 85.865,5.14016 87.865,3.47349 90.5,2.5 Z"/>
  </g>
  <g>
    <path style="opacity:1" fill="#dad29d" d="M 113.5,10.5 C 114.164,12.487 115.331,14.1537 117,15.5C 117.805,18.6965 117.638,21.6965 116.5,24.5C 115.5,24.5 114.5,24.5 113.5,24.5C 114.048,21.9748 115.048,19.6415 116.5,17.5C 116.145,16.4777 115.478,15.811 114.5,15.5C 111.734,12.9172 108.734,10.4172 105.5,8C 102.854,7.50258 100.187,7.33591 97.5,7.5C 97.6107,6.88258 97.944,6.38258 98.5,6C 104.402,4.62361 109.402,6.12361 113.5,10.5 Z"/>
  </g>
  <g>
    <path style="opacity:0.388" fill="#b3bebe" d="M 67.5,8.5 C 72.6814,7.36363 78.0147,7.36363 83.5,8.5C 83.5,8.83333 83.5,9.16667 83.5,9.5C 78.187,8.90218 72.8537,8.56884 67.5,8.5 Z"/>
  </g>
  <g>
    <path style="opacity:1" fill="#484749" d="M 115.5,5.5 C 117.543,6.57935 118.876,8.24602 119.5,10.5C 119.557,11.609 119.89,12.609 120.5,13.5C 119.359,16.6399 119.192,19.9733 120,23.5C 120.278,22.5842 120.778,21.9175 121.5,21.5C 121.007,23.8056 120.674,26.139 120.5,28.5C 119.754,32.3226 117.754,35.3226 114.5,37.5C 112.973,37.427 111.973,38.0937 111.5,39.5C 111.158,40.3382 110.492,40.6716 109.5,40.5C 108.181,38.2821 107.181,36.1154 106.5,34C 107.096,31.7752 107.763,29.6085 108.5,27.5C 111.942,28.1717 114.609,27.1717 116.5,24.5C 117.638,21.6965 117.805,18.6965 117,15.5C 115.331,14.1537 114.164,12.487 113.5,10.5C 113.131,8.55879 112.464,6.72546 111.5,5C 112.819,4.80503 114.153,4.97169 115.5,5.5 Z"/>
  </g>
  <g>
    <path style="opacity:1" fill="#47484f" d="M 67.5,9.5 C 67.5,9.16667 67.5,8.83333 67.5,8.5C 72.8537,8.56884 78.187,8.90218 83.5,9.5C 82.8333,10.1667 82.1667,10.8333 81.5,11.5C 79.5,11.5 77.5,11.5 75.5,11.5C 74.4324,10.5655 73.099,10.2322 71.5,10.5C 71.6347,12.5542 70.968,14.2209 69.5,15.5C 68.5,15.5 67.5,15.5 66.5,15.5C 66.3234,13.0194 67.3234,11.1861 69.5,10C 68.9056,9.53566 68.2389,9.36899 67.5,9.5 Z"/>
  </g>
  <g>
    <path style="opacity:1" fill="#7f8080" d="M 67.5,8.5 C 67.5,8.83333 67.5,9.16667 67.5,9.5C 65.5648,10.1495 63.5648,10.4828 61.5,10.5C 63.1016,8.92606 65.1016,8.25939 67.5,8.5 Z"/>
  </g>
  <g>
    <path style="opacity:1" fill="#444327" d="M 96.5,6.5 C 96.5,6.83333 96.5,7.16667 96.5,7.5C 95.8826,7.61071 95.3826,7.94404 95,8.5C 94.5026,11.146 94.3359,13.8127 94.5,16.5C 92.7469,13.713 92.4135,10.713 93.5,7.5C 94.4168,6.87277 95.4168,6.53944 96.5,6.5 Z"/>
  </g>
  <g>
    <path style="opacity:0.898" fill="#838383" d="M 61.5,10.5 C 61.0269,11.9063 60.0269,12.573 58.5,12.5C 58.9731,11.0937 59.9731,10.427 61.5,10.5 Z"/>
  </g>
  <g>
    <path style="opacity:0.118" fill="#afafaf" d="M 119.5,10.5 C 121.213,11.6354 121.88,13.302 121.5,15.5C 120.662,15.1583 120.328,14.4916 120.5,13.5C 119.89,12.609 119.557,11.609 119.5,10.5 Z"/>
  </g>
  <g>
    <path style="opacity:1" fill="#a6a062" d="M 96.5,7.5 C 96.8333,7.5 97.1667,7.5 97.5,7.5C 95.2089,10.8889 94.8756,14.5555 96.5,18.5C 95.8333,17.8333 95.1667,17.1667 94.5,16.5C 94.3359,13.8127 94.5026,11.146 95,8.5C 95.3826,7.94404 95.8826,7.61071 96.5,7.5 Z"/>
  </g>
  <g>
    <path style="opacity:1" fill="#353636" d="M 67.5,9.5 C 68.2389,9.36899 68.9056,9.53566 69.5,10C 67.3234,11.1861 66.3234,13.0194 66.5,15.5C 66.5,18.1667 66.5,20.8333 66.5,23.5C 65.6829,21.0314 65.1829,18.3647 65,15.5C 62.6481,17.674 61.4814,20.3407 61.5,23.5C 59.8333,23.5 58.1667,23.5 56.5,23.5C 56.9319,27.5897 58.9319,30.5897 62.5,32.5C 60.8333,32.5 59.1667,32.5 57.5,32.5C 57.539,29.911 56.539,27.911 54.5,26.5C 53.1667,24.8333 51.8333,23.1667 50.5,21.5C 50.5,21.1667 50.5,20.8333 50.5,20.5C 51.9063,20.0269 52.573,19.0269 52.5,17.5C 53.9108,15.086 55.9108,13.4194 58.5,12.5C 60.0269,12.573 61.0269,11.9063 61.5,10.5C 63.5648,10.4828 65.5648,10.1495 67.5,9.5 Z"/>
  </g>
  <g>
    <path style="opacity:1" fill="#b48aa2" d="M 75.5,11.5 C 76.6223,13.5556 78.2889,14.8889 80.5,15.5C 76.8333,15.5 73.1667,15.5 69.5,15.5C 70.968,14.2209 71.6347,12.5542 71.5,10.5C 73.099,10.2322 74.4324,10.5655 75.5,11.5 Z"/>
  </g>
  <g>
    <path style="opacity:1" fill="#ebe17a" d="M 97.5,7.5 C 100.187,7.33591 102.854,7.50258 105.5,8C 108.734,10.4172 111.734,12.9172 114.5,15.5C 114.38,16.5862 113.713,17.2528 112.5,17.5C 110.865,16.9537 109.199,16.6204 107.5,16.5C 107.5,19.1667 107.5,21.8333 107.5,24.5C 106.178,24.67 105.011,24.3366 104,23.5C 103.273,20.1358 102.44,16.8025 101.5,13.5C 101.062,16.2949 100.062,18.6283 98.5,20.5C 97.5,20.1667 96.8333,19.5 96.5,18.5C 94.8756,14.5555 95.2089,10.8889 97.5,7.5 Z"/>
  </g>
  <g>
    <path style="opacity:0.482" fill="#a09fa2" d="M 52.5,17.5 C 52.573,19.0269 51.9063,20.0269 50.5,20.5C 50.427,18.9731 51.0937,17.9731 52.5,17.5 Z"/>
  </g>
  <g>
    <path style="opacity:1" fill="#212123" d="M 120.5,13.5 C 120.328,14.4916 120.662,15.1583 121.5,15.5C 121.5,17.5 121.5,19.5 121.5,21.5C 120.778,21.9175 120.278,22.5842 120,23.5C 119.192,19.9733 119.359,16.6399 120.5,13.5 Z"/>
  </g>
  <g>
    <path style="opacity:0.455" fill="#a0a0a2" d="M 121.5,15.5 C 121.833,15.5 122.167,15.5 122.5,15.5C 122.5,19.1667 122.5,22.8333 122.5,26.5C 121.833,27.1667 121.167,27.8333 120.5,28.5C 120.674,26.139 121.007,23.8056 121.5,21.5C 121.5,19.5 121.5,17.5 121.5,15.5 Z"/>
  </g>
  <g>
    <path style="opacity:0.753" fill="#949494" d="M 31.5,19.5 C 31.5,19.8333 31.5,20.1667 31.5,20.5C 29.2143,20.595 27.2143,21.2616 25.5,22.5C 23.1667,23.1667 20.8333,23.8333 18.5,24.5C 22.0854,21.1748 26.4187,19.5081 31.5,19.5 Z"/>
  </g>
  <g>
    <path style="opacity:0.247" fill="#b2b5b6" d="M 43.5,19.5 C 45.861,19.6741 48.1944,20.0074 50.5,20.5C 50.5,20.8333 50.5,21.1667 50.5,21.5C 49.5,21.5 48.5,21.5 47.5,21.5C 46.0048,21.0113 44.6715,20.3446 43.5,19.5 Z"/>
  </g>
  <g>
    <path style="opacity:1" fill="#ede496" d="M 114.5,15.5 C 115.478,15.811 116.145,16.4777 116.5,17.5C 115.048,19.6415 114.048,21.9748 113.5,24.5C 111.521,26.1675 109.188,26.8342 106.5,26.5C 102.711,25.9444 100.045,23.9444 98.5,20.5C 100.062,18.6283 101.062,16.2949 101.5,13.5C 102.44,16.8025 103.273,20.1358 104,23.5C 105.011,24.3366 106.178,24.67 107.5,24.5C 107.5,21.8333 107.5,19.1667 107.5,16.5C 109.199,16.6204 110.865,16.9537 112.5,17.5C 113.713,17.2528 114.38,16.5862 114.5,15.5 Z"/>
  </g>
  <g>
    <path style="opacity:1" fill="#f089af" d="M 66.5,15.5 C 67.5,15.5 68.5,15.5 69.5,15.5C 73.1667,15.5 76.8333,15.5 80.5,15.5C 83.4887,15.8143 85.822,17.1476 87.5,19.5C 86.4168,19.4606 85.4168,19.1272 84.5,18.5C 82.8991,24.8183 82.5657,31.1517 83.5,37.5C 82.5,37.5 81.5,37.5 80.5,37.5C 78.8665,34.2031 76.1999,32.5364 72.5,32.5C 72.33,31.1779 72.6634,30.0113 73.5,29C 71.3386,28.4153 69.3386,27.5819 67.5,26.5C 66.8902,25.609 66.5569,24.609 66.5,23.5C 66.5,20.8333 66.5,18.1667 66.5,15.5 Z"/>
  </g>
  <g>
    <path style="opacity:1" fill="#54555e" d="M 43.5,19.5 C 44.6715,20.3446 46.0048,21.0113 47.5,21.5C 45.0521,22.4731 42.3854,22.8064 39.5,22.5C 39.5674,23.9587 39.2341,25.2921 38.5,26.5C 35.1069,28.073 33.7736,30.7396 34.5,34.5C 33.6618,34.1583 33.3284,33.4916 33.5,32.5C 33.0632,29.1934 33.7298,26.1934 35.5,23.5C 34.9234,21.4501 33.5901,20.4501 31.5,20.5C 31.5,20.1667 31.5,19.8333 31.5,19.5C 35.5,18.1667 39.5,18.1667 43.5,19.5 Z"/>
  </g>
  <g>
    <path style="opacity:1" fill="#686e7b" d="M 47.5,21.5 C 48.5,21.5 49.5,21.5 50.5,21.5C 51.8333,23.1667 53.1667,24.8333 54.5,26.5C 54.6309,27.3764 54.2975,28.0431 53.5,28.5C 51.8443,25.9818 50.5109,25.9818 49.5,28.5C 46.0813,26.9133 42.4146,26.2467 38.5,26.5C 39.2341,25.2921 39.5674,23.9587 39.5,22.5C 42.3854,22.8064 45.0521,22.4731 47.5,21.5 Z"/>
  </g>
  <g>
    <path style="opacity:1" fill="#706855" d="M 113.5,24.5 C 114.5,24.5 115.5,24.5 116.5,24.5C 114.609,27.1717 111.942,28.1717 108.5,27.5C 107.508,27.6716 106.842,27.3382 106.5,26.5C 109.188,26.8342 111.521,26.1675 113.5,24.5 Z"/>
  </g>
  <g>
    <path style="opacity:1" fill="#232324" d="M 31.5,20.5 C 33.5901,20.4501 34.9234,21.4501 35.5,23.5C 33.7298,26.1934 33.0632,29.1934 33.5,32.5C 32.596,31.791 32.2627,30.791 32.5,29.5C 30.4176,29.472 28.5843,30.1387 27,31.5C 26.2128,35.2833 24.5461,38.6166 22,41.5C 21.8071,46.7503 21.3071,51.917 20.5,57C 21.8333,59 23.1667,61 24.5,63C 27.2569,63.782 29.7569,63.282 32,61.5C 32.4994,55.8431 32.6661,50.1764 32.5,44.5C 34.5,45.1667 36.5,45.8333 38.5,46.5C 38.5764,44.0771 37.5764,42.2438 35.5,41C 34.7135,38.9011 34.3801,36.7345 34.5,34.5C 36.1473,37.7946 37.8139,41.1279 39.5,44.5C 39.2148,46.288 39.5481,47.9547 40.5,49.5C 41.9744,50.4363 42.9744,51.7697 43.5,53.5C 44.6888,54.4287 46.0222,54.762 47.5,54.5C 47.6495,55.552 47.4828,56.552 47,57.5C 46.6667,57.1667 46.3333,56.8333 46,56.5C 45.2935,58.0806 44.4601,59.5806 43.5,61C 36.8548,59.3009 32.1881,61.6342 29.5,68C 31.1492,70.6481 33.1492,72.9814 35.5,75C 30.72,81.4161 26.72,80.9161 23.5,73.5C 24.6843,65.8079 22.1843,59.4745 16,54.5C 15.0853,55.3279 14.4186,56.3279 14,57.5C 12.2051,52.0119 12.7051,46.6785 15.5,41.5C 16.9876,39.7294 18.821,38.3961 21,37.5C 23.8141,33.0253 26.9808,28.8586 30.5,25C 28.5,24.6667 26.5,24.3333 24.5,24C 25.056,23.6174 25.3893,23.1174 25.5,22.5C 27.2143,21.2616 29.2143,20.595 31.5,20.5 Z"/>
  </g>
  <g>
    <path style="opacity:1" fill="#221b1f" d="M 66.5,23.5 C 66.5569,24.609 66.8902,25.609 67.5,26.5C 70.1884,32.5218 74.5217,36.8551 80.5,39.5C 81.5,40.1667 82.5,40.8333 83.5,41.5C 82.791,42.404 81.791,42.7373 80.5,42.5C 79.9423,41.2101 78.9423,40.3768 77.5,40C 75.1218,39.4888 72.7885,38.8221 70.5,38C 70.0653,35.1331 68.8986,32.6331 67,30.5C 66.5045,32.4727 66.3379,34.4727 66.5,36.5C 65.8333,36.1667 65.1667,35.8333 64.5,35.5C 63.0937,35.0269 62.427,34.0269 62.5,32.5C 58.9319,30.5897 56.9319,27.5897 56.5,23.5C 58.1667,23.5 59.8333,23.5 61.5,23.5C 61.4814,20.3407 62.6481,17.674 65,15.5C 65.1829,18.3647 65.6829,21.0314 66.5,23.5 Z"/>
  </g>
  <g>
    <path style="opacity:1" fill="#cd859c" d="M 67.5,26.5 C 69.3386,27.5819 71.3386,28.4153 73.5,29C 72.6634,30.0113 72.33,31.1779 72.5,32.5C 76.1999,32.5364 78.8665,34.2031 80.5,37.5C 80.5,38.1667 80.5,38.8333 80.5,39.5C 74.5217,36.8551 70.1884,32.5218 67.5,26.5 Z"/>
  </g>
  <g>
    <path style="opacity:1" fill="#1b1b1b" d="M 33.5,32.5 C 33.3284,33.4916 33.6618,34.1583 34.5,34.5C 34.3801,36.7345 34.7135,38.9011 35.5,41C 37.5764,42.2438 38.5764,44.0771 38.5,46.5C 36.5,45.8333 34.5,45.1667 32.5,44.5C 32.6661,50.1764 32.4994,55.8431 32,61.5C 29.7569,63.282 27.2569,63.782 24.5,63C 23.1667,61 21.8333,59 20.5,57C 21.3071,51.917 21.8071,46.7503 22,41.5C 24.5461,38.6166 26.2128,35.2833 27,31.5C 28.5843,30.1387 30.4176,29.472 32.5,29.5C 32.2627,30.791 32.596,31.791 33.5,32.5 Z"/>
  </g>
  <g>
    <path style="opacity:0.831" fill="#848484" d="M 18.5,24.5 C 15.2279,27.1053 12.2279,30.1053 9.5,33.5C 8.5,34.1667 7.5,34.8333 6.5,35.5C 9.22272,30.4441 13.2227,26.7774 18.5,24.5 Z"/>
  </g>
  <g>
    <path style="opacity:1" fill="#faaecb" d="M 87.5,19.5 C 89.588,21.3356 90.9213,23.6689 91.5,26.5C 90.9782,29.5682 90.1449,32.5682 89,35.5C 87.5557,37.1554 85.7224,37.822 83.5,37.5C 82.5657,31.1517 82.8991,24.8183 84.5,18.5C 85.4168,19.1272 86.4168,19.4606 87.5,19.5 Z"/>
  </g>
  <g>
    <path style="opacity:1" fill="#bcc2e6" d="M 38.5,26.5 C 42.4146,26.2467 46.0813,26.9133 49.5,28.5C 52.5244,30.0134 55.1911,32.0134 57.5,34.5C 54.8877,33.6295 52.221,32.9628 49.5,32.5C 49.6655,36.5138 49.4988,40.5138 49,44.5C 47.5619,45.9003 46.7286,47.567 46.5,49.5C 47.552,49.3505 48.552,49.5172 49.5,50C 48.6634,51.0113 48.33,52.1779 48.5,53.5C 45.7279,50.3063 42.7279,47.3063 39.5,44.5C 37.8139,41.1279 36.1473,37.7946 34.5,34.5C 33.7736,30.7396 35.1069,28.073 38.5,26.5 Z"/>
  </g>
  <g>
    <path style="opacity:1" fill="#4c4c4c" d="M 9.5,33.5 C 9.58577,34.4959 9.25244,35.3292 8.5,36C 9.44802,36.4828 10.448,36.6495 11.5,36.5C 11.5,39.1667 11.5,41.8333 11.5,44.5C 9.98319,49.5856 9.14986,54.919 9,60.5C 8.63971,62.4211 7.80638,64.0878 6.5,65.5C 5.83333,65.1667 5.16667,64.8333 4.5,64.5C 3.54811,66.0453 3.21478,67.712 3.5,69.5C 1.55877,65.6763 0.225438,61.6763 -0.5,57.5C -0.5,55.8333 -0.5,54.1667 -0.5,52.5C 0.183984,49.4083 1.18398,46.4083 2.5,43.5C 3.49722,43.4701 4.16389,43.9701 4.5,45C 3.59604,49.1114 3.26271,53.278 3.5,57.5C 5.12377,57.6399 6.29044,56.9733 7,55.5C 8.01535,51.5598 8.51535,47.5598 8.5,43.5C 5.08968,43.6162 3.75635,41.9496 4.5,38.5C 4.93205,37.2905 5.59872,36.2905 6.5,35.5C 7.5,34.8333 8.5,34.1667 9.5,33.5 Z"/>
  </g>
  <g>
    <path style="opacity:1" fill="#2b2b2a" d="M 96.5,6.5 C 95.4168,6.53944 94.4168,6.87277 93.5,7.5C 92.4135,10.713 92.7469,13.713 94.5,16.5C 95.1667,17.1667 95.8333,17.8333 96.5,18.5C 96.8333,19.5 97.5,20.1667 98.5,20.5C 100.045,23.9444 102.711,25.9444 106.5,26.5C 106.842,27.3382 107.508,27.6716 108.5,27.5C 107.763,29.6085 107.096,31.7752 106.5,34C 107.181,36.1154 108.181,38.2821 109.5,40.5C 107.784,40.6287 106.117,40.962 104.5,41.5C 102.143,41.6633 99.8098,41.4966 97.5,41C 98.0219,40.4387 98.3552,39.772 98.5,39C 97.0578,32.8485 95.5578,26.6818 94,20.5C 91.9806,17.2882 89.1473,15.6216 85.5,15.5C 85.5,14.5 85.5,13.5 85.5,12.5C 83.901,12.7678 82.5676,12.4345 81.5,11.5C 82.1667,10.8333 82.8333,10.1667 83.5,9.5C 83.5,9.16667 83.5,8.83333 83.5,8.5C 83.5,7.83333 83.8333,7.5 84.5,7.5C 87.1073,6.68374 89.1073,5.01707 90.5,2.5C 93.1761,1.99194 95.8428,1.82527 98.5,2C 96.9632,3.10963 96.2965,4.60963 96.5,6.5 Z"/>
  </g>
  <g>
    <path style="opacity:1" fill="#dfb7c8" d="M 91.5,26.5 C 93.6311,30.245 93.9644,34.245 92.5,38.5C 88.5546,39.4909 84.5546,39.8242 80.5,39.5C 80.5,38.8333 80.5,38.1667 80.5,37.5C 81.5,37.5 82.5,37.5 83.5,37.5C 85.7224,37.822 87.5557,37.1554 89,35.5C 90.1449,32.5682 90.9782,29.5682 91.5,26.5 Z"/>
  </g>
  <g>
    <path style="opacity:0.118" fill="#b1b1b1" d="M 114.5,37.5 C 114.027,38.9063 113.027,39.573 111.5,39.5C 111.973,38.0937 112.973,37.427 114.5,37.5 Z"/>
  </g>
  <g>
    <path style="opacity:1" fill="#565157" d="M 75.5,11.5 C 77.5,11.5 79.5,11.5 81.5,11.5C 82.5676,12.4345 83.901,12.7678 85.5,12.5C 85.5,13.5 85.5,14.5 85.5,15.5C 89.1473,15.6216 91.9806,17.2882 94,20.5C 95.5578,26.6818 97.0578,32.8485 98.5,39C 98.3552,39.772 98.0219,40.4387 97.5,41C 99.8098,41.4966 102.143,41.6633 104.5,41.5C 104.5,41.8333 104.5,42.1667 104.5,42.5C 102.177,43.0584 99.8432,43.7251 97.5,44.5C 96.6389,46.9106 95.3056,48.9106 93.5,50.5C 93.4226,49.2502 92.756,48.4169 91.5,48C 85.9422,49.4365 84.2755,47.4365 86.5,42C 85.552,41.5172 84.552,41.3505 83.5,41.5C 82.5,40.8333 81.5,40.1667 80.5,39.5C 84.5546,39.8242 88.5546,39.4909 92.5,38.5C 93.9644,34.245 93.6311,30.245 91.5,26.5C 90.9213,23.6689 89.588,21.3356 87.5,19.5C 85.822,17.1476 83.4887,15.8143 80.5,15.5C 78.2889,14.8889 76.6223,13.5556 75.5,11.5 Z"/>
  </g>
  <g>
    <path style="opacity:1" fill="#d6dbf9" d="M 57.5,34.5 C 59.9,36.2964 61.5667,38.6298 62.5,41.5C 61.5416,41.0472 60.7083,40.3805 60,39.5C 59.2904,40.9733 58.1238,41.6399 56.5,41.5C 55.2093,45.7815 52.876,49.6148 49.5,53C 50.056,53.3826 50.3893,53.8826 50.5,54.5C 50.1667,54.5 49.8333,54.5 49.5,54.5C 48.8333,54.5 48.5,54.1667 48.5,53.5C 48.33,52.1779 48.6634,51.0113 49.5,50C 48.552,49.5172 47.552,49.3505 46.5,49.5C 46.7286,47.567 47.5619,45.9003 49,44.5C 49.4988,40.5138 49.6655,36.5138 49.5,32.5C 52.221,32.9628 54.8877,33.6295 57.5,34.5 Z"/>
  </g>
  <g>
    <path style="opacity:0.388" fill="#9a9a9a" d="M 109.5,40.5 C 108.22,41.9313 106.553,42.5979 104.5,42.5C 104.5,42.1667 104.5,41.8333 104.5,41.5C 106.117,40.962 107.784,40.6287 109.5,40.5 Z"/>
  </g>
  <g>
    <path style="opacity:1" fill="#222526" d="M 80.5,42.5 C 81.8303,44.8811 81.6636,47.2144 80,49.5C 79.6258,48.5838 79.1258,47.7504 78.5,47C 76.5273,46.5045 74.5273,46.3379 72.5,46.5C 73.1102,50.6348 72.2768,54.3014 70,57.5C 69.5357,56.9056 69.369,56.2389 69.5,55.5C 70.5436,48.8501 69.5436,42.5168 66.5,36.5C 66.3379,34.4727 66.5045,32.4727 67,30.5C 68.8986,32.6331 70.0653,35.1331 70.5,38C 72.7885,38.8221 75.1218,39.4888 77.5,40C 78.9423,40.3768 79.9423,41.2101 80.5,42.5 Z"/>
  </g>
  <g>
    <path style="opacity:1" fill="#6e6e6e" d="M 4.5,38.5 C 3.75635,41.9496 5.08968,43.6162 8.5,43.5C 8.51535,47.5598 8.01535,51.5598 7,55.5C 6.29044,56.9733 5.12377,57.6399 3.5,57.5C 3.26271,53.278 3.59604,49.1114 4.5,45C 4.16389,43.9701 3.49722,43.4701 2.5,43.5C 2.40206,41.4471 3.06873,39.7804 4.5,38.5 Z"/>
  </g>
  <g>
    <path style="opacity:1" fill="#a2a5b7" d="M 63.5,42.5 C 64.9517,44.8476 65.6183,47.5143 65.5,50.5C 65.4932,52.3693 65.1599,54.036 64.5,55.5C 64.5328,51.1311 64.1995,46.7978 63.5,42.5 Z"/>
  </g>
  <g>
    <path style="opacity:1" fill="#e0e2f6" d="M 62.5,41.5 C 63.1667,41.5 63.5,41.8333 63.5,42.5C 64.1995,46.7978 64.5328,51.1311 64.5,55.5C 61.7772,58.677 58.4439,59.3437 54.5,57.5C 52.5956,57.2624 51.2623,56.2624 50.5,54.5C 50.3893,53.8826 50.056,53.3826 49.5,53C 52.876,49.6148 55.2093,45.7815 56.5,41.5C 58.1238,41.6399 59.2904,40.9733 60,39.5C 60.7083,40.3805 61.5416,41.0472 62.5,41.5 Z"/>
  </g>
  <g>
    <path style="opacity:1" fill="#42424d" d="M 64.5,35.5 C 65.1667,35.8333 65.8333,36.1667 66.5,36.5C 69.5436,42.5168 70.5436,48.8501 69.5,55.5C 69.1667,55.5 68.8333,55.5 68.5,55.5C 66.8054,48.9468 65.4721,42.2801 64.5,35.5 Z"/>
  </g>
  <g>
    <path style="opacity:1" fill="#302f30" d="M 83.5,41.5 C 84.552,41.3505 85.552,41.5172 86.5,42C 84.2755,47.4365 85.9422,49.4365 91.5,48C 92.756,48.4169 93.4226,49.2502 93.5,50.5C 91.8333,51.5 90.5,52.8333 89.5,54.5C 89.5,55.1667 89.1667,55.5 88.5,55.5C 86.9731,55.427 85.9731,56.0937 85.5,57.5C 84.8333,57.5 84.1667,57.5 83.5,57.5C 78.8116,58.4228 74.4783,59.7562 70.5,61.5C 69.5326,60.1938 68.1993,59.5271 66.5,59.5C 66.7329,57.9382 67.3995,56.6049 68.5,55.5C 68.8333,55.5 69.1667,55.5 69.5,55.5C 69.369,56.2389 69.5357,56.9056 70,57.5C 72.2768,54.3014 73.1102,50.6348 72.5,46.5C 74.5273,46.3379 76.5273,46.5045 78.5,47C 79.1258,47.7504 79.6258,48.5838 80,49.5C 81.6636,47.2144 81.8303,44.8811 80.5,42.5C 81.791,42.7373 82.791,42.404 83.5,41.5 Z"/>
  </g>
  <g>
    <path style="opacity:0.051" fill="#bdbdbd" d="M 93.5,50.5 C 93.1667,52.8333 91.8333,54.1667 89.5,54.5C 90.5,52.8333 91.8333,51.5 93.5,50.5 Z"/>
  </g>
  <g>
    <path style="opacity:0.027" fill="#b7b7b7" d="M 88.5,55.5 C 88.0269,56.9063 87.0269,57.573 85.5,57.5C 85.9731,56.0937 86.9731,55.427 88.5,55.5 Z"/>
  </g>
  <g>
    <path style="opacity:1" fill="#2b2b2c" d="M 25.5,22.5 C 25.3893,23.1174 25.056,23.6174 24.5,24C 26.5,24.3333 28.5,24.6667 30.5,25C 26.9808,28.8586 23.8141,33.0253 21,37.5C 18.821,38.3961 16.9876,39.7294 15.5,41.5C 12.7051,46.6785 12.2051,52.0119 14,57.5C 14.4186,56.3279 15.0853,55.3279 16,54.5C 22.1843,59.4745 24.6843,65.8079 23.5,73.5C 26.72,80.9161 30.72,81.4161 35.5,75C 33.1492,72.9814 31.1492,70.6481 29.5,68C 32.1881,61.6342 36.8548,59.3009 43.5,61C 44.4601,59.5806 45.2935,58.0806 46,56.5C 46.3333,56.8333 46.6667,57.1667 47,57.5C 47.4828,56.552 47.6495,55.552 47.5,54.5C 46.0222,54.762 44.6888,54.4287 43.5,53.5C 42.9744,51.7697 41.9744,50.4363 40.5,49.5C 39.5481,47.9547 39.2148,46.288 39.5,44.5C 42.7279,47.3063 45.7279,50.3063 48.5,53.5C 48.5,54.1667 48.8333,54.5 49.5,54.5C 50.1157,55.7978 50.1157,56.7978 49.5,57.5C 48.1766,59.7623 46.8432,62.0956 45.5,64.5C 41.0847,62.893 36.9181,63.2263 33,65.5C 32.1605,68.3176 32.9938,70.4843 35.5,72C 37.556,72.3108 39.556,72.8108 41.5,73.5C 42.9198,70.0342 45.2531,69.0342 48.5,70.5C 47.6872,71.8139 46.6872,72.9805 45.5,74C 39.3371,73.715 36.3371,76.5484 36.5,82.5C 37.8221,82.33 38.9887,82.6634 40,83.5C 42.9973,82.1336 46.164,81.467 49.5,81.5C 49.719,82.675 49.3857,83.675 48.5,84.5C 46.2406,84.7845 44.5739,85.7845 43.5,87.5C 41.1667,88.1667 38.8333,88.8333 36.5,89.5C 35.8333,89.5 35.1667,89.5 34.5,89.5C 31.8333,88.8333 29.1667,88.1667 26.5,87.5C 25.9423,86.2101 24.9423,85.3768 23.5,85C 27.1851,84.0855 26.8518,83.4189 22.5,83C 23.938,82.7811 25.2713,82.2811 26.5,81.5C 24.8509,79.3501 23.0176,77.3501 21,75.5C 21.3257,71.5305 21.3257,67.5305 21,63.5C 20.1007,61.6734 18.7674,60.34 17,59.5C 15.2341,60.2335 13.4008,60.5668 11.5,60.5C 11.5,55.1667 11.5,49.8333 11.5,44.5C 11.5,41.8333 11.5,39.1667 11.5,36.5C 10.448,36.6495 9.44802,36.4828 8.5,36C 9.25244,35.3292 9.58577,34.4959 9.5,33.5C 12.2279,30.1053 15.2279,27.1053 18.5,24.5C 20.8333,23.8333 23.1667,23.1667 25.5,22.5 Z"/>
  </g>
  <g>
    <path style="opacity:1" fill="#333333" d="M 49.5,57.5 C 50.209,58.404 51.209,58.7373 52.5,58.5C 51.4735,62.4062 52.4735,65.9062 55.5,69C 58.8936,69.7517 62.227,69.5851 65.5,68.5C 66.3857,69.325 66.719,70.325 66.5,71.5C 65.2921,72.2341 63.9587,72.5674 62.5,72.5C 62.5,73.8333 62.5,75.1667 62.5,76.5C 61.5,76.8333 60.8333,77.5 60.5,78.5C 57.9957,79.7654 55.4957,80.0988 53,79.5C 52.2904,80.9733 51.1238,81.6399 49.5,81.5C 46.164,81.467 42.9973,82.1336 40,83.5C 38.9887,82.6634 37.8221,82.33 36.5,82.5C 36.3371,76.5484 39.3371,73.715 45.5,74C 46.6872,72.9805 47.6872,71.8139 48.5,70.5C 45.2531,69.0342 42.9198,70.0342 41.5,73.5C 39.556,72.8108 37.556,72.3108 35.5,72C 32.9938,70.4843 32.1605,68.3176 33,65.5C 36.9181,63.2263 41.0847,62.893 45.5,64.5C 46.8432,62.0956 48.1766,59.7623 49.5,57.5 Z"/>
  </g>
  <g>
    <path style="opacity:1" fill="#55565e" d="M 54.5,26.5 C 56.539,27.911 57.539,29.911 57.5,32.5C 59.1667,32.5 60.8333,32.5 62.5,32.5C 62.427,34.0269 63.0937,35.0269 64.5,35.5C 65.4721,42.2801 66.8054,48.9468 68.5,55.5C 67.3995,56.6049 66.7329,57.9382 66.5,59.5C 66.719,60.675 66.3857,61.675 65.5,62.5C 59.0832,66.4556 55.4166,64.789 54.5,57.5C 58.4439,59.3437 61.7772,58.677 64.5,55.5C 65.1599,54.036 65.4932,52.3693 65.5,50.5C 65.6183,47.5143 64.9517,44.8476 63.5,42.5C 63.5,41.8333 63.1667,41.5 62.5,41.5C 61.5667,38.6298 59.9,36.2964 57.5,34.5C 55.1911,32.0134 52.5244,30.0134 49.5,28.5C 50.5109,25.9818 51.8443,25.9818 53.5,28.5C 54.2975,28.0431 54.6309,27.3764 54.5,26.5 Z"/>
  </g>
  <g>
    <path style="opacity:0.027" fill="#b6b6b6" d="M 83.5,57.5 C 82.653,58.9663 81.3197,59.7996 79.5,60C 77.1667,60.3333 74.8333,60.6667 72.5,61C 71.6006,62.6516 70.6006,64.1516 69.5,65.5C 69.4326,64.0413 69.7659,62.7079 70.5,61.5C 74.4783,59.7562 78.8116,58.4228 83.5,57.5 Z"/>
  </g>
  <g>
    <path style="opacity:1" fill="#474746" d="M 49.5,54.5 C 49.8333,54.5 50.1667,54.5 50.5,54.5C 51.2623,56.2624 52.5956,57.2624 54.5,57.5C 55.4166,64.789 59.0832,66.4556 65.5,62.5C 66.3857,61.675 66.719,60.675 66.5,59.5C 68.1993,59.5271 69.5326,60.1938 70.5,61.5C 69.7659,62.7079 69.4326,64.0413 69.5,65.5C 69.3465,67.9699 68.3465,69.9699 66.5,71.5C 66.719,70.325 66.3857,69.325 65.5,68.5C 62.227,69.5851 58.8936,69.7517 55.5,69C 52.4735,65.9062 51.4735,62.4062 52.5,58.5C 51.209,58.7373 50.209,58.404 49.5,57.5C 50.1157,56.7978 50.1157,55.7978 49.5,54.5 Z"/>
  </g>
  <g>
    <path style="opacity:0.91" fill="#7e7e7e" d="M 3.5,69.5 C 5.40775,70.4856 6.40775,72.1523 6.5,74.5C 4.74973,73.3406 3.74973,71.674 3.5,69.5 Z"/>
  </g>
  <g>
    <path style="opacity:1" fill="#767676" d="M 66.5,71.5 C 65.8645,73.7946 64.5311,75.4613 62.5,76.5C 62.5,75.1667 62.5,73.8333 62.5,72.5C 63.9587,72.5674 65.2921,72.2341 66.5,71.5 Z"/>
  </g>
  <g>
    <path style="opacity:0.012" fill="#aeaeae" d="M 6.5,74.5 C 9.16667,76.5 11.5,78.8333 13.5,81.5C 10.1667,80.1667 7.83333,77.8333 6.5,74.5 Z"/>
  </g>
  <g>
    <path style="opacity:0.012" fill="#b8b8b8" d="M 62.5,76.5 C 62.5,77.8333 61.8333,78.5 60.5,78.5C 60.8333,77.5 61.5,76.8333 62.5,76.5 Z"/>
  </g>
  <g>
    <path style="opacity:1" fill="#313131" d="M 11.5,44.5 C 11.5,49.8333 11.5,55.1667 11.5,60.5C 13.4008,60.5668 15.2341,60.2335 17,59.5C 18.7674,60.34 20.1007,61.6734 21,63.5C 21.3257,67.5305 21.3257,71.5305 21,75.5C 23.0176,77.3501 24.8509,79.3501 26.5,81.5C 25.2713,82.2811 23.938,82.7811 22.5,83C 26.8518,83.4189 27.1851,84.0855 23.5,85C 24.9423,85.3768 25.9423,86.2101 26.5,87.5C 22.6733,87.2484 19.3399,85.9151 16.5,83.5C 16.0269,82.0937 15.0269,81.427 13.5,81.5C 11.5,78.8333 9.16667,76.5 6.5,74.5C 6.40775,72.1523 5.40775,70.4856 3.5,69.5C 3.21478,67.712 3.54811,66.0453 4.5,64.5C 5.16667,64.8333 5.83333,65.1667 6.5,65.5C 7.80638,64.0878 8.63971,62.4211 9,60.5C 9.14986,54.919 9.98319,49.5856 11.5,44.5 Z"/>
  </g>
  <g>
    <path style="opacity:1" fill="#5a5a5a" d="M 60.5,78.5 C 56.2102,83.815 50.5435,86.815 43.5,87.5C 44.5739,85.7845 46.2406,84.7845 48.5,84.5C 49.3857,83.675 49.719,82.675 49.5,81.5C 51.1238,81.6399 52.2904,80.9733 53,79.5C 55.4957,80.0988 57.9957,79.7654 60.5,78.5 Z"/>
  </g>
  <g>
    <path style="opacity:0.765" fill="#8c8c8c" d="M 13.5,81.5 C 15.0269,81.427 16.0269,82.0937 16.5,83.5C 14.9731,83.573 13.9731,82.9063 13.5,81.5 Z"/>
  </g>
</svg>